<svg xmlns="http://www.w3.org/2000/svg" viewBox="0 0 187.48 187.34"><defs><style>.cls-1{fill:#d1ecff;}.cls-2{fill:#044a8b;}.cls-3{fill:#fdc509;}</style></defs><g id="圖層_2" data-name="圖層 2"><g id="圖層_1-2" data-name="圖層 1"><g id="Group_339" data-name="Group 339"><path id="Path_463" data-name="Path 463" class="cls-1" d="M93.91,0c87.53,0,93.57,6.34,93.57,93.87s-4.48,93.47-92,93.47S0,187.6,0,100.07,6.39,0,93.91,0Z"/><path id="Path_497" data-name="Path 497" class="cls-2" d="M148.11,136.46a6.73,6.73,0,0,1-6.73,6.73H47.16a6.73,6.73,0,0,1-6.73-6.72h0a6.73,6.73,0,0,1,6.73-6.72h94.22A6.74,6.74,0,0,1,148.11,136.46Zm-40.38,0a3.38,3.38,0,0,0-3.36-3.36H84.17a3.35,3.35,0,0,0-3.36,3.36h0a3.37,3.37,0,0,0,3.36,3.38h20.2A3.38,3.38,0,0,0,107.73,136.46Z"/><rect id="Rectangle_409" data-name="Rectangle 409" class="cls-3" x="54.32" y="56.29" width="85" height="59" rx="10"/><path id="Path_498" data-name="Path 498" class="cls-2" d="M124.3,122.45H64.24A22.28,22.28,0,0,1,42,100.2V67.59A22.28,22.28,0,0,1,64.24,45.33H124.3a22.29,22.29,0,0,1,22.26,22.26V100.2A22.29,22.29,0,0,1,124.3,122.45ZM64.24,53.82A13.78,13.78,0,0,0,50.46,67.59V100.2A13.78,13.78,0,0,0,64.24,114H124.3a13.8,13.8,0,0,0,13.78-13.77V67.59A13.79,13.79,0,0,0,124.3,53.82Z"/><path id="Path_499" data-name="Path 499" class="cls-2" d="M109.53,74.36,87.11,69.57a1.78,1.78,0,0,0-1.78,1.78h0l4.78,22.41a1.8,1.8,0,0,0,3,1.26l4.9-4.9,8.06,8.07,7.81-7.82-8.06-8.07,4.92-4.91a1.8,1.8,0,0,0-.05-2.54A1.83,1.83,0,0,0,109.53,74.36Z"/></g></g></g></svg>