<svg xmlns="http://www.w3.org/2000/svg" viewBox="0 0 187.48 187.34"><defs><style>.cls-1{fill:#d1ecff;}.cls-2{fill:#044a8b;}.cls-3{fill:#fdc509;}</style></defs><g id="圖層_2" data-name="圖層 2"><g id="圖層_1-2" data-name="圖層 1"><g id="Group_340" data-name="Group 340"><path id="Path_463" data-name="Path 463" class="cls-1" d="M93.91,0c87.53,0,93.57,6.34,93.57,93.87s-4.48,93.47-92,93.47S0,187.6,0,100.07,6.39,0,93.91,0Z"/><path id="Path_461" data-name="Path 461" class="cls-2" d="M53.56,58.62v2.5H46.9a6.66,6.66,0,0,0,0,13.32h6.66V87.76H46.9a6.66,6.66,0,0,0-.66,13.3h7.32v13.33H46.9a6.66,6.66,0,0,0,0,13.32h6.66v2.5a17.51,17.51,0,0,0,13.32,16.95V41.66A17.51,17.51,0,0,0,53.56,58.62Z"/><ellipse id="Ellipse_42" data-name="Ellipse 42" class="cls-3" cx="114.15" cy="86.02" rx="15" ry="14.5"/><path id="Path_661" data-name="Path 661" class="cls-3" d="M91.39,116.49c4.54,1.81,27,12.93,49.39,0-2.25-3.78-4.18-11.28-12.1-12.1-7.77.19-27.17,0-27.17,0S94.69,105.74,91.39,116.49Z"/><path class="cls-2" d="M129.28,41.13H80.17V147.69h49.11a17.52,17.52,0,0,0,17.52-17.53V58.59A17.53,17.53,0,0,0,129.28,41.13ZM101.06,74.08a14.67,14.67,0,0,1,20.75,20.75l-.06,0a14.67,14.67,0,1,1-20.69-20.8ZM88.92,116.57l-.06.06A13.39,13.39,0,0,1,102,103h19.43a13.41,13.41,0,0,1,13.14,13.62C109.13,128.05,88.92,116.57,88.92,116.57Z"/></g></g></g></svg>