<svg xmlns="http://www.w3.org/2000/svg" viewBox="0 0 1060.58 1020.7"><defs><style>.cls-1{fill:#d1ecff;}.cls-1,.cls-13,.cls-14,.cls-15,.cls-16,.cls-17,.cls-19,.cls-20,.cls-21,.cls-22,.cls-23,.cls-29,.cls-3,.cls-31,.cls-34,.cls-35,.cls-36,.cls-37,.cls-38,.cls-39,.cls-4,.cls-40,.cls-41,.cls-42,.cls-43,.cls-44,.cls-45,.cls-46,.cls-47,.cls-48,.cls-49,.cls-5,.cls-50,.cls-6,.cls-7,.cls-8,.cls-9{fill-rule:evenodd;}.cls-2{fill:#fea708;}.cls-3{fill:#ce7f00;}.cls-4{fill:#ffd124;}.cls-5{fill:#ffd320;}.cls-6{fill:#fceb93;}.cls-7{fill:#febe16;}.cls-8{fill:#fbe995;}.cls-10,.cls-9{fill:#45aaf2;}.cls-11,.cls-16{fill:#fff;}.cls-12{fill:#1a1a1a;}.cls-13{fill:#028ff1;}.cls-14,.cls-24{fill:#fdc509;}.cls-15{fill:#004687;}.cls-17{fill:#ad6200;}.cls-18,.cls-19{fill:#999;}.cls-20{fill:#deaa00;}.cls-21{fill:#ffda61;}.cls-22{fill:#0772d6;}.cls-23{fill:#00559d;}.cls-25{fill:#9cc7e6;}.cls-26{fill:#e0f56c;}.cls-27{fill:red;}.cls-28{fill:#002a4f;}.cls-30{fill:#84e043;}.cls-31,.cls-33{fill:#429b02;}.cls-32{fill:#ddffc4;}.cls-34{fill:#238aeb;}.cls-35{fill:#82cbff;}.cls-36{fill:#ffcf6e;}.cls-37{fill:#003e6b;}.cls-38{fill:#004e70;}.cls-39{fill:#004461;}.cls-40{fill:#0a1f33;}.cls-41{fill:#1d558a;}.cls-42{fill:#c93;}.cls-43{fill:#132600;}.cls-44{fill:#00162b;}.cls-45{fill:#003d73;}.cls-46{fill:#001324;}.cls-47{fill:#001c36;}.cls-48{fill:#57aeff;}.cls-49{fill:#0069cc;}.cls-50{fill:#005fb8;}</style></defs><g id="圖層_2" data-name="圖層 2"><g id="Layer_1" data-name="Layer 1"><path class="cls-1" d="M307,52.18C421,0,554.35,43.51,616.78,149.09a243.15,243.15,0,0,1,54.78-34.52c121.9-55.78,265.94-2.19,321.73,119.7a242.11,242.11,0,0,1,1.53,198.58A242.49,242.49,0,0,1,1038.5,498c55.79,121.9,2.2,265.94-119.7,321.73a241.63,241.63,0,0,1-145,18A242.26,242.26,0,0,1,639.58,998.62c-121.9,55.79-265.94,2.2-321.73-119.7q-2.7-5.91-5.06-11.89c-100,9.53-199.55-44.15-243.73-140.67-55.79-121.9-2.19-265.94,119.7-321.73q6-2.75,12.1-5.14a247.08,247.08,0,0,1-13.6-25.58C131.48,252,185.07,108,307,52.18Z"/><circle class="cls-2" cx="493.68" cy="663.09" r="230.55" transform="translate(-324.28 543.3) rotate(-45)"/><path class="cls-3" d="M542.47,430.22a237.91,237.91,0,1,1-179,33.7,237.2,237.2,0,0,1,179-33.7ZM680.48,541A223.17,223.17,0,1,0,712.1,708.84,222.44,222.44,0,0,0,680.48,541Z"/><path class="cls-4" d="M447.46,837.11l7.33-35q-25.46-8.75-40.1-20.64c-9.76-7.92-17.25-19-22.58-33.24s-6.68-30.53-4.2-49l36.41.57Q422.46,729,430,744.4q10.8,21.78,31,28.29l23-109.84q-20.4-10.1-40.19-27.45a65.6,65.6,0,0,1-20.32-31.18c-3.71-12.33-4.09-25.42-1.16-39.4q7.81-37.27,39-54.92c13.9-7.88,32.74-10.58,56.35-8.06l3.5-16.7,20.68,4.33-3.5,16.7q29.73,9.24,44.37,28.05,18.76,23.87,16.45,58.18l-37-1.93c.84-14.28-1.23-25.86-6.25-34.6s-12.88-15.49-23.78-20.27L511.1,636.36q24.93,12.28,32.68,17.78,14.81,10.56,22.84,23.05A70.9,70.9,0,0,1,577.34,705a86.24,86.24,0,0,1-.93,31.84q-7.59,36.3-35.76,55.75t-65.1,13.49l-7.41,35.39-20.68-4.33Zm64.15-306.23c-13.95-.78-25.83,2.41-35.44,9.66a46.59,46.59,0,0,0-18.3,28.83q-3.74,17.89,3.68,32t30,25.31l20.08-95.84ZM481.64,777A52.72,52.72,0,0,0,519,766.37c10.93-8.23,18-19.82,21.1-34.67,2.67-12.73,1.68-23.53-3-32.6s-15.91-17.86-33.59-26.61Z"/><path class="cls-5" d="M260.81,614.3a237.92,237.92,0,1,1,33.71,179,237.21,237.21,0,0,1-33.71-179ZM766.37,720.21c31.54-150.61-65-298.26-215.56-329.8S252.55,455.36,221,606,286,904.22,436.56,935.77,734.81,870.82,766.37,720.21Z"/><path class="cls-6" d="M616,459a237.53,237.53,0,0,1,62.12,53.83l33.42-23.35a278.73,278.73,0,0,0-59.51-55.65Z"/><path class="cls-7" d="M666,521.26a222.29,222.29,0,0,0-63.34-53l-57.54,40.18q24.69,9.15,37.63,25.76a76.41,76.41,0,0,1,15.32,34.47Z"/><path class="cls-7" d="M443.77,635.4a65.6,65.6,0,0,1-20.32-31.18,72.55,72.55,0,0,1-2.14-9.31L273.25,698.29A223,223,0,0,0,301.19,776l85.52-59.72a128.11,128.11,0,0,1,1.2-17l22.66.35,61.77-43.13A201.85,201.85,0,0,1,443.77,635.4Z"/><path class="cls-6" d="M289,784.47a238,238,0,0,1-29.14-76.85l-36,25.15a278.82,278.82,0,0,0,31.74,75.05Z"/><path class="cls-7" d="M457.87,569.37q-3.74,17.89,3.68,32t30,25.31L511.37,532Z"/><path class="cls-7" d="M532.21,535.6l-19.4,92.62,53.74-37.53-4.31-.22c.84-14.28-1.23-25.86-6.25-34.6S543.11,540.38,532.21,535.6Z"/><path class="cls-8" d="M532.21,535.6c10.9,4.78,18.83,11.49,23.78,20.27s7.09,20.32,6.25,34.6l4.31.22,31.51-22a76.41,76.41,0,0,0-15.32-34.47q-12.94-16.56-37.63-25.76L511.37,532l-19.84,94.7q-22.56-11.16-30-25.31t-3.68-32l-36.56,25.54,2.14,9.31a65.6,65.6,0,0,0,20.32,31.18,201.85,201.85,0,0,0,28.57,21.08l40.47-28.26Z"/><path class="cls-6" d="M551,432.16a238.46,238.46,0,0,1,38.62,13.13l38.18-26.5a278.26,278.26,0,0,0-34.55-16Z"/><path class="cls-6" d="M256.09,676.78A236.38,236.38,0,0,1,257.28,636L215,665.34a277.42,277.42,0,0,0,2.88,37.94Z"/><path class="cls-7" d="M461.34,509.9q18.27-10.36,47.79-8.76l10.19-7.06,1.87-8.94,8.46,1.77,45.53-31.61a224.07,224.07,0,0,0-35.74-10.63q-2.52-.54-5-1L273.88,624.49a223.53,223.53,0,0,0-3.38,42.29l152.73-106Q431.82,526.57,461.34,509.9Z"/><path class="cls-8" d="M509.13,501.14q-29.47-1.61-47.79,8.76-29.47,16.67-38.11,50.87Z"/><polygon class="cls-9" points="984.5 495.75 971.27 547.63 968.62 546.95 967.89 549.79 981.18 553.17 981.9 550.34 979.25 549.66 992.47 497.79 995.13 498.46 995.85 495.63 982.56 492.24 981.84 495.08 984.5 495.75"/><polygon class="cls-9" points="958.58 489.15 945.35 541.02 942.69 540.35 941.97 543.18 955.26 546.57 955.98 543.73 953.33 543.06 966.55 491.18 969.21 491.86 969.93 489.02 956.64 485.63 955.92 488.47 958.58 489.15"/><polygon class="cls-9" points="932.65 482.54 919.43 534.42 916.77 533.74 916.05 536.57 929.34 539.96 930.06 537.13 927.4 536.45 940.63 484.57 943.29 485.25 944.01 482.42 930.72 479.03 930 481.86 932.65 482.54"/><polygon class="cls-9" points="906.74 475.93 893.51 527.81 890.85 527.13 890.13 529.97 903.42 533.35 904.14 530.52 901.49 529.84 914.71 477.96 917.37 478.64 918.09 475.81 904.8 472.42 904.08 475.25 906.74 475.93"/><polygon class="cls-9" points="961.57 439.9 929.07 452.42 896.57 464.94 951.61 478.97 1006.65 493 984.11 466.45 961.57 439.9"/><rect class="cls-10" x="949.16" y="428.27" width="3.62" height="106.45" transform="translate(249.5 1284.07) rotate(-75.7)"/><rect class="cls-10" x="933.12" y="491.2" width="3.62" height="106.45" transform="translate(176.45 1315.92) rotate(-75.7)"/><rect class="cls-10" x="931.96" y="489.87" width="3.62" height="118.23" transform="translate(171.15 1318.22) rotate(-75.7)"/><rect class="cls-11" x="565.62" y="156.14" width="78.54" height="125.14" transform="translate(248.03 753.85) rotate(-76.18)"/><rect class="cls-12" x="602.83" y="135.01" width="14.52" height="125.14" transform="translate(272.5 742.81) rotate(-76.18)"/><path class="cls-13" d="M630.12,241.37l22.7,5.58a2.63,2.63,0,0,1,1.92,3.18l-2.56,10.41a2.63,2.63,0,0,1-3.18,1.92l-22.69-5.58a2.61,2.61,0,0,1-1.92-3.17L627,243.29A2.62,2.62,0,0,1,630.12,241.37Z"/><path class="cls-14" d="M554.73,201.23l13.83,3.4a3.72,3.72,0,0,1,2.71,4.48L570.05,214a3.7,3.7,0,0,1-4.47,2.71l-13.83-3.4a3.71,3.71,0,0,1-2.71-4.47l1.22-4.94A3.71,3.71,0,0,1,554.73,201.23Z"/><path class="cls-15" d="M12.64,937.73H957a12.66,12.66,0,0,1,12.63,12.64h0A12.67,12.67,0,0,1,957,963H12.64A12.68,12.68,0,0,1,0,950.37H0A12.67,12.67,0,0,1,12.64,937.73Z"/><path class="cls-9" d="M750,168.8a16.22,16.22,0,0,1,8.37,2.31c3-5.62,9.77-9.54,17.68-9.54.66,0,1.32,0,2,.08.64-10.82,8.79-19.38,18.77-19.38,9.67,0,17.63,8,18.69,18.39a26,26,0,0,1,4-.3c8,0,14.92,3.5,18.84,8.77H839c12.26,0,22.19,8.31,22.19,18.57a16.34,16.34,0,0,1-3.55,10.07h0a19.33,19.33,0,0,1-1.92,2.14l-6.58,7.35a3.76,3.76,0,0,1-3.6,1.61l-93.67-1.77c-3.64.14-6.78-1-8.91-4.58l-4.07-6.22c-2.18-3.38-4.83-7.68-4.83-12.06A15.69,15.69,0,0,1,750,168.8Z"/><path class="cls-14" d="M465.16,56.22a28.11,28.11,0,1,0-28.11-28.11A28.17,28.17,0,0,0,465.16,56.22Z"/><path class="cls-9" d="M459.69,36.3a19.61,19.61,0,0,1,8,1.68,20.9,20.9,0,0,1,35,6,18.64,18.64,0,0,1,13.15-5.45h.15c1.18-8.51,8.85-15.08,18.15-15.08a19.32,19.32,0,0,1,6.17,1C544.31,11.28,557,1.69,571.92,1.69,590.18,1.69,605,16,605,33.57a30.6,30.6,0,0,1-.57,5.94c8.11,1.9,14.24,10.57,14.24,21,0,10.21-5.9,18.75-13.78,20.86h0a14.55,14.55,0,0,1-8.49-.26l-128.2-2.69a42.43,42.43,0,0,1-8.48.63,20.24,20.24,0,0,1-9.54-2.48h0a21.49,21.49,0,0,1-10.88-18.88C439.27,45.86,448.42,36.3,459.69,36.3Z"/><path class="cls-9" d="M133.46,180.28a12.53,12.53,0,0,1,5.12,1.08,13.42,13.42,0,0,1,10-4.52,13.56,13.56,0,0,1,12.47,8.36,12,12,0,0,1,8.46-3.51h.1a11.58,11.58,0,0,1,11.68-9.7,12.38,12.38,0,0,1,4,.65A21.2,21.2,0,0,1,205.7,158c11.76,0,21.29,9.19,21.29,20.52a20.14,20.14,0,0,1-.37,3.83c5.22,1.22,9.16,6.8,9.16,13.5s-3.79,12.06-8.87,13.42h0a9.11,9.11,0,0,1-2.45.33,9.49,9.49,0,0,1-3-.49l-82.53-1.74a27.08,27.08,0,0,1-5.46.41,13.08,13.08,0,0,1-6.14-1.59h0a13.84,13.84,0,0,1-7-12.16C120.32,186.43,126.2,180.28,133.46,180.28Z"/><polygon class="cls-14" points="223.06 275.83 203.96 340.48 289.49 271.71 223.06 275.83"/><polygon class="cls-16" points="261.31 331.95 263.15 325.69 269.45 325.3 269.45 325.3 269.07 325.32 286.79 279.19 276.11 265.91 201.99 325.51 213.04 339.26 261.31 331.95"/><polygon class="cls-14" points="263.07 325.59 243.97 390.24 329.5 321.47 263.07 325.59"/><polygon class="cls-14" points="261.23 331.85 204.02 340.55 243.97 390.24 261.23 331.85"/><polygon class="cls-14" points="289.55 271.78 268.99 325.22 329.5 321.47 289.55 271.78"/><polygon class="cls-14" points="212.98 339.19 210.13 335.64 204.02 340.55 212.98 339.19"/><polygon class="cls-14" points="284.26 276.04 286.73 279.11 289.55 271.78 284.26 276.04"/><polygon class="cls-17" points="243.71 390.16 262.81 325.51 262.87 325.33 263.06 325.32 329.49 321.2 329.52 321.74 263.28 325.85 244.23 390.32 243.71 390.16"/><rect class="cls-18" x="203.82" y="301.1" width="81.01" height="2.35" transform="translate(-135.49 219.8) rotate(-38.8)"/><rect class="cls-18" x="207.67" y="305.88" width="81.01" height="2.35" transform="matrix(0.78, -0.63, 0.63, 0.78, -137.64, 223.27)"/><rect class="cls-18" x="211.03" y="310.06" width="81.01" height="2.35" transform="translate(-139.52 226.29) rotate(-38.8)"/><polygon class="cls-19" points="226.39 337.15 281.42 292.9 279.74 297.27 231.02 336.44 226.39 337.15"/><polygon class="cls-19" points="240.79 334.96 276.19 306.49 274.51 310.86 245.42 334.25 240.79 334.96"/><path class="cls-14" d="M106.73,438.2A59.18,59.18,0,1,1,30.3,472.31,59.18,59.18,0,0,1,106.73,438.2Z"/><path class="cls-20" d="M107.59,436a61.58,61.58,0,1,1-47.11,1.28A61.4,61.4,0,0,1,107.59,436Zm29.84,34.36a56.78,56.78,0,1,0,1.19,43.45A56.59,56.59,0,0,0,137.43,470.32Z"/><path class="cls-21" d="M68.49,531.85l3-7.77A30.73,30.73,0,0,1,63,517.83a17.7,17.7,0,0,1-4-8.49,23.36,23.36,0,0,1,.85-11.42l8.37,1.52q-1.49,6.62-.32,10.43A12.15,12.15,0,0,0,74,517.5l9.47-24.76a35.06,35.06,0,0,1-8.39-7.47,15.57,15.57,0,0,1-3.53-7.94A19.66,19.66,0,0,1,83.74,457c3.51-1.31,7.94-1.22,13.3.23l1.41-3.72L103,455.3,101.6,459q6.56,3.24,9.24,8.1a18.84,18.84,0,0,1,1.69,14l-8.5-1.85a14.18,14.18,0,0,0-.18-8.13,11.25,11.25,0,0,0-4.75-5.51L90.51,488a69,69,0,0,1,6.91,5.27,20.62,20.62,0,0,1,4.43,6.16,17,17,0,0,1,1.43,6.79,19.66,19.66,0,0,1-1.38,7.29A20,20,0,0,1,91.6,525a20.27,20.27,0,0,1-15.53.71l-3,7.85-4.57-1.75Zm26.06-68.1a12.27,12.27,0,0,0-8.54.89,11.51,11.51,0,0,0-5.59,13.47q1.18,3.54,5.9,7.15l8.23-21.51Zm-16,55.52a12.39,12.39,0,0,0,9-1.07A13,13,0,0,0,93.71,511a11,11,0,0,0,.51-7.6c-.74-2.26-2.94-4.85-6.6-7.8Z"/><path class="cls-14" d="M788.08,602q98.55,135.48,48.35,230.89c-57.86-33-70.37-88.46-58.53-150.72,2.63-13.86,6.22-22,10.43-34.88C793.34,632,794.35,617,788.08,602Z"/><path class="cls-13" d="M836.43,832.87Q832.11,734.1,724,716c23.35,19.93,33.41,44.26,42.5,72.74,4.16,13,8.25,18.38,18.07,27.94C799.46,831.15,815.79,838.58,836.43,832.87Z"/><path class="cls-22" d="M828.92,832.82Q842.72,734.92,952,727.31c-24,16.8-37,39.61-48.29,66-6,14.09-9.59,18.66-21.68,28.35C865.88,834.66,848.91,840.49,828.92,832.82Z"/><path class="cls-23" d="M750.63,731.52Q798.17,766.17,828.49,833l.85-.38q-30.44-67.07-78.16-101.85Z"/><path class="cls-23" d="M818.63,811.13a44.49,44.49,0,0,0-9.89-4.9,54.33,54.33,0,0,0-11.47-2.62l-.12.92a53.15,53.15,0,0,1,11.28,2.58,43.13,43.13,0,0,1,9.69,4.8Z"/><path class="cls-23" d="M808.36,793.5a97.66,97.66,0,0,1-1.68-15.3c0-4,.43-6.9,1.4-8.74l-.82-.43q-1.56,3-1.5,9.18a98.5,98.5,0,0,0,1.69,15.46Z"/><path class="cls-23" d="M790.44,768.49a68.86,68.86,0,0,0-12.57-3.37,25.79,25.79,0,0,0-9.44,0l.2.9a25.06,25.06,0,0,1,9.1,0,68.21,68.21,0,0,1,12.39,3.33Z"/><path class="cls-23" d="M777.58,754.09A49.83,49.83,0,0,0,778,747a30.12,30.12,0,0,0-.62-5.91l-.91.2a28.26,28.26,0,0,1,.61,5.72,51.54,51.54,0,0,1-.42,7Z"/><path class="cls-23" d="M839.83,827.08a293.57,293.57,0,0,1,78-83.17l-.54-.75A294.28,294.28,0,0,0,839,826.58Z"/><path class="cls-23" d="M855.35,804.5q12.78-4.2,17.31-.64l.58-.73q-4.92-3.87-18.18.49Z"/><path class="cls-23" d="M865.94,791.37a66.26,66.26,0,0,0-.19-10.71,18.69,18.69,0,0,0-1.91-6.86l-.8.45a17.93,17.93,0,0,1,1.78,6.52,65.3,65.3,0,0,1,.2,10.55Z"/><path class="cls-23" d="M879.51,776.68q13.49-5.77,19-3.84l.3-.87q-5.9-2.06-19.71,3.86Z"/><path class="cls-23" d="M897.21,759.93q-.53-9.75,1.18-13.11l-.82-.42Q895.74,750,896.29,760Z"/><path class="cls-23" d="M802.53,647.23a807.69,807.69,0,0,1,25.73,143.83l.92-.09a807.69,807.69,0,0,0-25.76-144Z"/><path class="cls-23" d="M826.34,764.56q4.08-9.25,8-16.18A83.7,83.7,0,0,1,842,736.89l-.71-.58a82.73,82.73,0,0,0-7.72,11.61q-3.93,7-8,16.26Z"/><path class="cls-23" d="M823,739.44q-12-16.8-25-24.88l-.49.79q12.76,8,24.7,24.63Z"/><path class="cls-23" d="M818,710a42.12,42.12,0,0,1,4.52-12.37,15.46,15.46,0,0,1,6.67-6.44l-.39-.84a16.38,16.38,0,0,0-7.07,6.8,42.85,42.85,0,0,0-4.63,12.65Z"/><path class="cls-23" d="M811.55,679.42c-1-.8-17.64-13.29-17.85-10.78,0,.06,10.71,6.43,11.75,7.18,1.91,1.38,3.69,2.8,5.5,4.31Z"/><polygon class="cls-13" points="883.8 939.72 785.03 939.72 765.16 835.46 903.68 835.46 883.8 939.72"/><path class="cls-24" d="M479.09,820.58H634.76a3.87,3.87,0,0,1,3.87,3.87v18.4a3.87,3.87,0,0,1-3.87,3.87H479.09a3.88,3.88,0,0,1-3.88-3.88v-18.4A3.88,3.88,0,0,1,479.09,820.58Z"/><path class="cls-20" d="M634.76,818.87H479.09a5.6,5.6,0,0,0-5.58,5.58v18.4a5.57,5.57,0,0,0,1.64,3.94h0a5.54,5.54,0,0,0,3.94,1.64H634.76a5.57,5.57,0,0,0,3.94-1.64h0a5.55,5.55,0,0,0,1.64-3.93v-18.4a5.56,5.56,0,0,0-1.64-3.94h0a5.57,5.57,0,0,0-3.94-1.64Zm-155.67,3.41H634.76a2.14,2.14,0,0,1,1.53.63h0a2.15,2.15,0,0,1,.65,1.53v18.4a2.16,2.16,0,0,1-.64,1.53h0a2.14,2.14,0,0,1-1.53.63H479.09a2.16,2.16,0,0,1-1.54-.64h0a2.16,2.16,0,0,1-.64-1.53v-18.4a2.19,2.19,0,0,1,2.18-2.17Z"/><path class="cls-24" d="M474.32,850H630a3.87,3.87,0,0,1,3.87,3.87v18.4a3.87,3.87,0,0,1-3.87,3.87H474.32a3.88,3.88,0,0,1-3.88-3.88v-18.4a3.88,3.88,0,0,1,3.88-3.88Z"/><path class="cls-20" d="M630,848.29H474.32a5.6,5.6,0,0,0-5.58,5.58v18.4a5.57,5.57,0,0,0,1.64,3.94h0a5.56,5.56,0,0,0,3.94,1.63H630a5.54,5.54,0,0,0,3.93-1.63h0a5.54,5.54,0,0,0,1.63-3.93v-18.4a5.55,5.55,0,0,0-1.63-3.94h0a5.55,5.55,0,0,0-3.93-1.64ZM474.32,851.7H630a2.17,2.17,0,0,1,1.53.63h0a2.16,2.16,0,0,1,.64,1.53v18.4a2.17,2.17,0,0,1-.63,1.53h0a2.17,2.17,0,0,1-1.53.63H474.32a2.18,2.18,0,0,1-1.53-.64h0a2.17,2.17,0,0,1-.63-1.53v-18.4a2.16,2.16,0,0,1,.64-1.53A2.14,2.14,0,0,1,474.32,851.7Z"/><path class="cls-24" d="M479.9,879.41H635.58a3.87,3.87,0,0,1,3.87,3.87v18.4a3.88,3.88,0,0,1-3.88,3.88H479.9a3.88,3.88,0,0,1-3.88-3.88v-18.4A3.88,3.88,0,0,1,479.9,879.41Z"/><path class="cls-20" d="M635.58,877.71H479.9a5.58,5.58,0,0,0-5.57,5.58v18.4a5.51,5.51,0,0,0,1.64,3.93h0a5.56,5.56,0,0,0,3.94,1.63H635.58a5.54,5.54,0,0,0,3.93-1.63h0a5.55,5.55,0,0,0,1.64-3.93v-18.4a5.54,5.54,0,0,0-1.64-3.94h0a5.57,5.57,0,0,0-3.94-1.64Zm-155.68,3.4H635.58a2.16,2.16,0,0,1,1.53.64h0a2.16,2.16,0,0,1,.64,1.53v18.4a2.17,2.17,0,0,1-.63,1.53h0a2.2,2.2,0,0,1-1.53.63H479.9a2.2,2.2,0,0,1-1.53-.64h0a2.17,2.17,0,0,1-.63-1.53v-18.4a2.2,2.2,0,0,1,2.17-2.18Z"/><path class="cls-24" d="M475.14,908.83H630.81a3.87,3.87,0,0,1,3.87,3.87v18.4a3.88,3.88,0,0,1-3.88,3.88H475.14a3.88,3.88,0,0,1-3.88-3.88v-18.4A3.88,3.88,0,0,1,475.14,908.83Z"/><path class="cls-20" d="M630.81,907.13H475.14a5.58,5.58,0,0,0-5.58,5.58V931.1A5.56,5.56,0,0,0,471.2,935h0a5.54,5.54,0,0,0,3.94,1.64H630.81a5.57,5.57,0,0,0,3.94-1.64h0a5.57,5.57,0,0,0,1.64-3.94V912.71a5.58,5.58,0,0,0-1.64-4h0a5.57,5.57,0,0,0-3.94-1.64Zm-155.67,3.4H630.81a2.14,2.14,0,0,1,1.53.64h0a2.13,2.13,0,0,1,.65,1.53V931.1a2.19,2.19,0,0,1-.64,1.54h0a2.14,2.14,0,0,1-1.53.64H475.14a2.16,2.16,0,0,1-1.53-.64h0a2.19,2.19,0,0,1-.64-1.54V912.71a2.22,2.22,0,0,1,2.18-2.18Z"/><rect class="cls-24" x="336.26" y="745.82" width="155.32" height="24.85" rx="3.68"/><path class="cls-20" d="M487.89,744.21H339.94a5.29,5.29,0,0,0-5.3,5.3V767a5.3,5.3,0,0,0,1.56,3.75h0a5.29,5.29,0,0,0,3.75,1.55h148a5.27,5.27,0,0,0,3.74-1.55h0a5.27,5.27,0,0,0,1.55-3.74V749.51a5.29,5.29,0,0,0-1.55-3.75h0a5.26,5.26,0,0,0-3.74-1.56Zm-147.95,3.23h148a2,2,0,0,1,1.46.61h0a2.09,2.09,0,0,1,.61,1.46V767a2.06,2.06,0,0,1-.6,1.46h0a2.06,2.06,0,0,1-1.46.6H339.94a2.09,2.09,0,0,1-1.46-.61h0a2,2,0,0,1-.61-1.46V749.51a2.08,2.08,0,0,1,2.07-2.07Z"/><rect class="cls-24" x="331.66" y="773.79" width="155.32" height="24.85" rx="3.68"/><path class="cls-20" d="M483.3,772.17h-148a5.31,5.31,0,0,0-5.3,5.3V795a5.3,5.3,0,0,0,1.56,3.75h0a5.25,5.25,0,0,0,3.74,1.55h148A5.29,5.29,0,0,0,487,798.7h0A5.28,5.28,0,0,0,488.6,795V777.47a5.3,5.3,0,0,0-1.56-3.75h0a5.29,5.29,0,0,0-3.74-1.56Zm-148,3.23h148a2,2,0,0,1,1.45.6h0a2,2,0,0,1,.61,1.46V795a2.06,2.06,0,0,1-.6,1.46h0a2,2,0,0,1-1.45.6h-148a2.07,2.07,0,0,1-1.45-.61h0a2.06,2.06,0,0,1-.6-1.46V777.47a2.08,2.08,0,0,1,2.06-2.07Z"/><rect class="cls-24" x="336.26" y="801.74" width="155.32" height="24.85" rx="3.68"/><path class="cls-20" d="M487.89,800.13H339.94a5.29,5.29,0,0,0-5.3,5.3v17.48a5.26,5.26,0,0,0,1.56,3.74h0a5.29,5.29,0,0,0,3.75,1.55h148a5.27,5.27,0,0,0,3.74-1.55h0a5.27,5.27,0,0,0,1.55-3.74V805.43a5.29,5.29,0,0,0-1.55-3.75h0a5.22,5.22,0,0,0-3.74-1.56Zm-147.95,3.23h148a2.06,2.06,0,0,1,1.46.6h0a2.07,2.07,0,0,1,.61,1.46v17.48a2.06,2.06,0,0,1-.6,1.46h0a2.06,2.06,0,0,1-1.46.6H339.94a2.09,2.09,0,0,1-1.46-.61h0a2,2,0,0,1-.61-1.46V805.43a2.08,2.08,0,0,1,2.07-2.07Z"/><rect class="cls-24" x="339.3" y="829.7" width="155.32" height="24.85" rx="3.68"/><path class="cls-20" d="M490.93,828.08H343a5.31,5.31,0,0,0-5.3,5.31v17.48a5.28,5.28,0,0,0,1.56,3.74h0a5.33,5.33,0,0,0,3.75,1.55h148a5.27,5.27,0,0,0,3.74-1.55h0a5.28,5.28,0,0,0,1.56-3.74V833.39a5.3,5.3,0,0,0-1.56-3.75h0a5.3,5.3,0,0,0-3.75-1.56ZM343,831.32h148a2.06,2.06,0,0,1,1.46.6h0a2.07,2.07,0,0,1,.61,1.46v17.48a2.06,2.06,0,0,1-.6,1.46h0a2.06,2.06,0,0,1-1.46.6H343a2.09,2.09,0,0,1-1.46-.61h0a2.06,2.06,0,0,1-.6-1.46V833.39a2.06,2.06,0,0,1,.6-1.46A2.09,2.09,0,0,1,343,831.32Z"/><rect class="cls-24" x="334.77" y="857.66" width="155.32" height="24.85" rx="3.68"/><path class="cls-20" d="M486.41,856h-148a5.31,5.31,0,0,0-5.3,5.31v17.48a5.28,5.28,0,0,0,1.56,3.74h0a5.33,5.33,0,0,0,3.75,1.55h148a5.26,5.26,0,0,0,3.73-1.55h0a5.28,5.28,0,0,0,1.56-3.74V861.35a5.3,5.3,0,0,0-1.56-3.75h0a5.29,5.29,0,0,0-3.74-1.56Zm-148,3.24h148a2.06,2.06,0,0,1,1.45.6h0a2.07,2.07,0,0,1,.61,1.46v17.48a2.06,2.06,0,0,1-.6,1.46h0a2.06,2.06,0,0,1-1.45.6h-148a2.11,2.11,0,0,1-1.46-.61h0a2.06,2.06,0,0,1-.6-1.46V861.35a2.06,2.06,0,0,1,.6-1.46A2.11,2.11,0,0,1,338.45,859.28Z"/><rect class="cls-24" x="340.07" y="885.62" width="155.32" height="24.85" rx="3.68"/><path class="cls-20" d="M491.71,884H343.76a5.29,5.29,0,0,0-5.3,5.3v17.48a5.27,5.27,0,0,0,1.55,3.74h0a5.33,5.33,0,0,0,3.75,1.55h148a5.29,5.29,0,0,0,3.74-1.55h0a5.27,5.27,0,0,0,1.55-3.74V889.31a5.32,5.32,0,0,0-1.55-3.75h0a5.27,5.27,0,0,0-3.74-1.55Zm-147.95,3.23h148a2.06,2.06,0,0,1,1.46.6h0a2.06,2.06,0,0,1,.6,1.46v17.48a2.06,2.06,0,0,1-.6,1.46h0a2,2,0,0,1-1.46.61H343.76a2.07,2.07,0,0,1-1.46-.61h0a2.06,2.06,0,0,1-.6-1.46V889.31a2.08,2.08,0,0,1,2.07-2.07Z"/><rect class="cls-24" x="335.54" y="913.58" width="155.32" height="24.85" rx="3.68"/><path class="cls-20" d="M487.18,912H339.23a5.31,5.31,0,0,0-5.3,5.3v17.49a5.23,5.23,0,0,0,1.56,3.74h0a5.3,5.3,0,0,0,3.75,1.56h148a5.29,5.29,0,0,0,3.74-1.56h0a5.27,5.27,0,0,0,1.55-3.74V917.26a5.33,5.33,0,0,0-1.55-3.74h0a5.28,5.28,0,0,0-3.74-1.56ZM339.23,915.2h148a2.06,2.06,0,0,1,1.46.6h0a2.07,2.07,0,0,1,.61,1.45v17.49a2,2,0,0,1-.61,1.46h0a2.07,2.07,0,0,1-1.46.61H339.23a2.09,2.09,0,0,1-1.46-.61h0a2.06,2.06,0,0,1-.6-1.46V917.26a2.08,2.08,0,0,1,2.07-2.06Z"/><rect class="cls-25" x="617.39" y="748.21" width="129.11" height="190" rx="6.83"/><rect class="cls-26" x="625.83" y="756.77" width="112.87" height="29.53" rx="3.55"/><path class="cls-27" d="M632.17,802.66h14.75a2.64,2.64,0,0,1,2.64,2.64v10.53a2.65,2.65,0,0,1-2.65,2.65H632.17a2.65,2.65,0,0,1-2.65-2.65V805.3A2.65,2.65,0,0,1,632.17,802.66Z"/><path class="cls-27" d="M660.65,802.66H675.4A2.64,2.64,0,0,1,678,805.3v10.53a2.65,2.65,0,0,1-2.65,2.65H660.65a2.65,2.65,0,0,1-2.65-2.65V805.3a2.65,2.65,0,0,1,2.65-2.65Z"/><path class="cls-27" d="M689.13,802.66h14.75a2.64,2.64,0,0,1,2.64,2.64v10.53a2.65,2.65,0,0,1-2.65,2.65H689.13a2.65,2.65,0,0,1-2.65-2.65V805.3A2.65,2.65,0,0,1,689.13,802.66Z"/><path class="cls-27" d="M717.61,802.66h14.75A2.64,2.64,0,0,1,735,805.3v10.53a2.65,2.65,0,0,1-2.65,2.65H717.61a2.65,2.65,0,0,1-2.65-2.65V805.3A2.65,2.65,0,0,1,717.61,802.66Z"/><path class="cls-28" d="M632.17,825.86h14.75a2.64,2.64,0,0,1,2.64,2.64V839a2.65,2.65,0,0,1-2.65,2.65H632.17a2.65,2.65,0,0,1-2.65-2.65V828.51A2.65,2.65,0,0,1,632.17,825.86Z"/><path class="cls-28" d="M632.17,849.07h14.75a2.64,2.64,0,0,1,2.64,2.64v10.53a2.65,2.65,0,0,1-2.65,2.65H632.17a2.65,2.65,0,0,1-2.65-2.65V851.72A2.65,2.65,0,0,1,632.17,849.07Z"/><path class="cls-28" d="M632.17,872.27h14.75a2.64,2.64,0,0,1,2.64,2.64v10.53a2.65,2.65,0,0,1-2.65,2.65H632.17a2.65,2.65,0,0,1-2.65-2.65V874.92A2.65,2.65,0,0,1,632.17,872.27Z"/><rect class="cls-28" x="629.52" y="895.48" width="20.04" height="15.82" rx="2.65"/><path class="cls-28" d="M660.65,825.86H675.4a2.64,2.64,0,0,1,2.64,2.64V839a2.65,2.65,0,0,1-2.65,2.65H660.65A2.65,2.65,0,0,1,658,839V828.51A2.65,2.65,0,0,1,660.65,825.86Z"/><path class="cls-28" d="M660.65,849.07H675.4a2.64,2.64,0,0,1,2.64,2.64v10.53a2.65,2.65,0,0,1-2.65,2.65H660.65a2.65,2.65,0,0,1-2.65-2.65V851.72A2.65,2.65,0,0,1,660.65,849.07Z"/><path class="cls-28" d="M660.65,872.27H675.4a2.64,2.64,0,0,1,2.64,2.64v10.53a2.65,2.65,0,0,1-2.65,2.65H660.65a2.65,2.65,0,0,1-2.65-2.65V874.92A2.65,2.65,0,0,1,660.65,872.27Z"/><path class="cls-28" d="M660.65,895.48H675.4a2.64,2.64,0,0,1,2.64,2.64v10.53a2.65,2.65,0,0,1-2.65,2.65H660.65a2.65,2.65,0,0,1-2.65-2.65V898.13A2.65,2.65,0,0,1,660.65,895.48Z"/><path class="cls-28" d="M689.13,825.86h14.75a2.64,2.64,0,0,1,2.64,2.64V839a2.64,2.64,0,0,1-2.64,2.64H689.13a2.65,2.65,0,0,1-2.65-2.65V828.51A2.65,2.65,0,0,1,689.13,825.86Z"/><path class="cls-28" d="M689.13,849.07h14.75a2.64,2.64,0,0,1,2.64,2.64v10.53a2.65,2.65,0,0,1-2.65,2.65H689.13a2.65,2.65,0,0,1-2.65-2.65V851.72A2.65,2.65,0,0,1,689.13,849.07Z"/><path class="cls-28" d="M689.13,872.27h14.75a2.64,2.64,0,0,1,2.64,2.64v10.53a2.65,2.65,0,0,1-2.65,2.65H689.13a2.65,2.65,0,0,1-2.65-2.65V874.92A2.65,2.65,0,0,1,689.13,872.27Z"/><path class="cls-28" d="M689.13,895.48h14.75a2.64,2.64,0,0,1,2.64,2.64v10.53a2.65,2.65,0,0,1-2.65,2.65H689.13a2.65,2.65,0,0,1-2.65-2.65V898.13A2.65,2.65,0,0,1,689.13,895.48Z"/><path class="cls-28" d="M717.61,825.86h14.75a2.64,2.64,0,0,1,2.64,2.64V839a2.65,2.65,0,0,1-2.65,2.65H717.61A2.65,2.65,0,0,1,715,839V828.51A2.65,2.65,0,0,1,717.61,825.86Z"/><rect class="cls-28" x="714.96" y="849.07" width="20.04" height="15.82" rx="2.65"/><rect class="cls-28" x="714.96" y="872.27" width="20.04" height="15.82" rx="2.65"/><path class="cls-27" d="M717.61,895.48h14.75a2.64,2.64,0,0,1,2.64,2.64v10.53a2.65,2.65,0,0,1-2.65,2.65H717.61a2.65,2.65,0,0,1-2.65-2.65V898.13A2.65,2.65,0,0,1,717.61,895.48Z"/><path class="cls-29" d="M687.25,779.18h-2.62v-12a9.1,9.1,0,0,1-3.35,2.41v-2.9a7.14,7.14,0,0,0,2.24-1.56,6.13,6.13,0,0,0,1.63-2.6h2.1Z"/><path class="cls-29" d="M699.93,776.24v2.94h-9.12a8.8,8.8,0,0,1,.9-3.17,20.46,20.46,0,0,1,2.91-4,22.83,22.83,0,0,0,2.11-2.64,4,4,0,0,0,.58-2,2.42,2.42,0,0,0-.48-1.63,1.6,1.6,0,0,0-1.27-.55c-1.15,0-1.77.86-1.86,2.59l-2.59-.35a5.93,5.93,0,0,1,1.41-3.7,4.15,4.15,0,0,1,3.11-1.18,3.81,3.81,0,0,1,3.21,1.39,5,5,0,0,1,1.09,3.18,7.16,7.16,0,0,1-.28,2,8.06,8.06,0,0,1-.85,1.92,16.36,16.36,0,0,1-1.92,2.47c-.83.94-1.36,1.56-1.58,1.87a6.09,6.09,0,0,0-.54.87Z"/><path class="cls-29" d="M701.59,774.79l2.53-.37a3,3,0,0,0,.64,1.79,1.62,1.62,0,0,0,2.62-.12,3.29,3.29,0,0,0,.55-2,3,3,0,0,0-.53-1.9,1.59,1.59,0,0,0-1.29-.68,3.63,3.63,0,0,0-1.18.24l.28-2.6a2.22,2.22,0,0,0,1.61-.54,2.08,2.08,0,0,0,.58-1.58,2,2,0,0,0-.42-1.33,1.38,1.38,0,0,0-1.08-.49,1.47,1.47,0,0,0-1.14.56,3,3,0,0,0-.58,1.67l-2.4-.49a5.8,5.8,0,0,1,1.46-3.32,3.79,3.79,0,0,1,2.74-1,3.64,3.64,0,0,1,2.95,1.32A4.5,4.5,0,0,1,710,766.8a3.92,3.92,0,0,1-.49,2,4.51,4.51,0,0,1-1.47,1.52,3.24,3.24,0,0,1,1.84,1.35,4.45,4.45,0,0,1,.72,2.6,5.39,5.39,0,0,1-1.35,3.76,4.19,4.19,0,0,1-3.21,1.48,4.07,4.07,0,0,1-3-1.25A5.48,5.48,0,0,1,701.59,774.79Z"/><path class="cls-29" d="M717.33,779.18v-3.33h-5.55v-2.79l5.88-10.49h2.19v10.48h1.69v2.8h-1.69v3.33Zm0-6.13v-5.64l-3.12,5.64Z"/><path class="cls-29" d="M722.84,774.93l2.59-.35a2.89,2.89,0,0,0,.67,1.71,1.64,1.64,0,0,0,1.24.63,1.7,1.7,0,0,0,1.38-.8,4.2,4.2,0,0,0,.57-2.44,3.75,3.75,0,0,0-.57-2.29,1.75,1.75,0,0,0-1.45-.74,2.5,2.5,0,0,0-2,1.2l-2.12-.37,1.34-8.63h6.87v3h-4.87l-.44,2.82a3.43,3.43,0,0,1,1.78-.53,3.47,3.47,0,0,1,2.72,1.27,6.21,6.21,0,0,1,1.41,4.25,7.15,7.15,0,0,1-1.2,4,3.86,3.86,0,0,1-3.43,1.83,4.14,4.14,0,0,1-3-1.18A5.32,5.32,0,0,1,722.84,774.93Z"/><rect class="cls-30" x="97.43" y="903.46" width="260.72" height="33.43"/><path class="cls-31" d="M358.15,902.51H96.47v1.91H359.1v-1.91ZM96.47,935.93v1.91H359.1v-1.91H96.47Z"/><rect class="cls-32" x="205.11" y="902.51" width="45.36" height="35.34"/><rect class="cls-33" x="268.38" y="922.54" width="63.03" height="0.99"/><rect class="cls-33" x="278.88" y="913.47" width="63.03" height="0.99"/><rect class="cls-33" x="109.37" y="917.79" width="63.03" height="1"/><rect class="cls-33" x="123.69" y="924.45" width="31.52" height="0.99"/><rect class="cls-30" x="109.43" y="869.1" width="260.72" height="33.42"/><path class="cls-31" d="M370.15,868.14H108.47v1.91H371.1v-1.91ZM108.47,901.57v1.91H371.1v-1.91H108.47Z"/><rect class="cls-32" x="217.11" y="868.14" width="45.36" height="35.33"/><rect class="cls-33" x="280.38" y="888.18" width="63.03" height="0.99"/><rect class="cls-33" x="290.88" y="879.1" width="63.03" height="1"/><rect class="cls-33" x="121.37" y="883.42" width="63.03" height="0.99"/><rect class="cls-33" x="135.69" y="890.09" width="31.52" height="0.99"/><rect class="cls-30" x="85.33" y="836.01" width="260.72" height="33.43"/><path class="cls-31" d="M346.05,835.06H84.37V837H347v-1.91ZM84.37,868.48v1.91H347v-1.91H84.37Z"/><rect class="cls-32" x="193.01" y="835.06" width="45.36" height="35.33"/><rect class="cls-33" x="256.28" y="855.09" width="63.03" height="0.99"/><rect class="cls-33" x="266.78" y="846.02" width="63.03" height="1"/><rect class="cls-33" x="97.27" y="850.34" width="63.03" height="0.99"/><rect class="cls-33" x="111.59" y="857" width="31.52" height="0.99"/><path class="cls-34" d="M349.17,941.48c29.7,0,53.93-22.15,53.93-49.31s-24.23-49.3-53.93-49.3-53.93,22.15-53.93,49.3S319.47,941.48,349.17,941.48Z"/><path class="cls-34" d="M357.52,841q-12.13-1.37-20.82.74-6.37-15.16-18.82-23.65c13.62-7.59,3.79,3.16,16.32-2.38,3.65-1.61-.29,4.25,10.7,1.44,21.22-5.4,6.76.07,20.73-.85,1-.07,1.53-1.4,1.95-2.13Q360,830.18,357.52,841Z"/><path class="cls-23" d="M358.72,838.9a97.59,97.59,0,0,0-24.05.94c.73,1.4,1.4,2.85,2,4.36a46.79,46.79,0,0,1,8.71-1.21h0c1.23-.08,2.48-.12,3.74-.12a59,59,0,0,1,8.35.59Q358,841.29,358.72,838.9Z"/><path class="cls-35" d="M347.86,916.82v-4.9a17.83,17.83,0,0,1-6-1.64,10.48,10.48,0,0,1-4-3.83A13.81,13.81,0,0,1,336,900l4.91-.94a12.42,12.42,0,0,0,2,5.82,7.13,7.13,0,0,0,4.95,2.92V892.42a25.72,25.72,0,0,1-6.17-2.55,9,9,0,0,1-3.6-3.61,10.85,10.85,0,0,1-1.26-5.26,10.72,10.72,0,0,1,3.69-8.46q2.48-2.17,7.34-2.66v-2.34h2.89v2.34a12,12,0,0,1,6.74,2.51,11.16,11.16,0,0,1,3.84,7.34l-5,.78a8.44,8.44,0,0,0-1.81-4.46,6.58,6.58,0,0,0-3.76-2v14.1a41.84,41.84,0,0,1,4.88,1.47,12,12,0,0,1,3.72,2.45,9.84,9.84,0,0,1,2.21,3.43,11.56,11.56,0,0,1,.78,4.29,11.73,11.73,0,0,1-11.59,12.12v5Zm0-42.88a7.19,7.19,0,0,0-4.49,2.29,6.43,6.43,0,0,0-1.64,4.39,6.34,6.34,0,0,0,1.39,4.19,8.86,8.86,0,0,0,4.74,2.55V873.94Zm2.89,33.86a7.24,7.24,0,0,0,4.72-2.48,7.7,7.7,0,0,0,1.85-5.24,6.55,6.55,0,0,0-1.32-4.29c-.88-1.08-2.63-1.95-5.25-2.63Z"/><path class="cls-36" d="M707.32,624.48a12.13,12.13,0,0,1,.09,1.82c-2.06,3.45-4.36,4-6.4,5.54a4.75,4.75,0,0,0-4.84-3.16c-4.73,3.7-6.59-7-5.88-12.19,1.73.89,4.34,2.21,4.69,2.33,2.17.79,1.94,1.67,2.46,1.85,1.11-.42,2.26-4.72,3.74-2.49,1.92,2.88-.36,3.68,4.11,5.57A8.05,8.05,0,0,0,707.32,624.48Z"/><path class="cls-22" d="M706.42,607.63c1.86,2,1.61,1.26,2.59,2.6.88,1.19,5.06,2.19,7,3,4.59,1.79,4.4,1.4,8.79,3,2.12.76,7,2,8.39,3.09,2.68,2.11,4.33,10.14,4.21,13.26a8.71,8.71,0,0,1-2.88,6.67,13.59,13.59,0,0,0-2.81,2.76c-3.34,4.14-8.11,5.4-12.78,2.68-3.09-2.14-3.26-6.4-4.54-9.72l-.23-.6a10.9,10.9,0,0,0-3-4.88c-2.46-2.56-1.11-1.48-3.83-4.08-1,1.12-.17-.86-2.11-1.64-4.47-1.89-2.19-2.69-4.11-5.57-1.48-2.23-2.63,2.07-3.74,2.49-.52-.18-.29-1.06-2.46-1.85-.52-.18-6-3-6.22-3.15-1.75-1.28-3.47-5.66-2.74-7.5.92-2.3,4-.11,5.42-2,2.82-3.7,5.62-4,9.72-2A15.59,15.59,0,0,1,706.42,607.63Z"/><path class="cls-37" d="M727,719.06c.55-8.59-9.76-17.88-8.94-25.32,3.71-33.78,2.75-56.86-9.81-68.08-12.88,10.14-18.4,18.73-21.75,22.82-4.54,18,2.84,34.95,3.71,49.72.42,7.09-4.08,13.73-2.41,20.08C700.17,723,709.3,722.7,727,719.06Z"/><path class="cls-23" d="M655.35,710.13c18.5-5.92,38.23-25.12,54.68-51.88,10.47-17.06-2.8-25.67-16.4-12.88-4.17,3.93-10.42,36-15.71,38.49-6.17,2.88-24,22.88-24.79,21.09C651.65,710.13,655.35,710.13,655.35,710.13Z"/><path class="cls-38" d="M687.77,718.28a63.88,63.88,0,0,0,38.83-.36c10,29.55-20.44,38.1-75,31.43-5.9.44-4.91,27.08-17.76,62.17l-.14-.06q-2.34,4.63-18.94.76A49.15,49.15,0,0,1,627.19,808C620,716.1,652,725.14,687.77,718.28Z"/><path class="cls-39" d="M653.61,749.59c-.25,8.33,7.25,30.19,8.27,60.8h-.16q-.42,5.18-17.26,7.8a48.86,48.86,0,0,1,9.88-8.56,281.72,281.72,0,0,1-12-27.19c4.43-19.75,5.2-32.78,9.31-33.09Z"/><polygon class="cls-29" points="670.81 718.87 634.14 718.43 617.53 687.38 614.93 688.77 631.95 720.59 632.37 721.36 633.24 721.37 670.77 721.82 670.81 718.87"/><path class="cls-14" d="M652.84,706.33c-5,1.11-8.22,4.17-9.7,10.09,1.87-.49,5.57-4.07,8.14-6.29-.74,3.33.74,4.81,4.07,0C655.35,710.13,652.34,710.13,652.84,706.33Z"/><path class="cls-23" d="M647.69,694.94c12-1.56,25.44-8.12,38.93-18.5a82.7,82.7,0,0,1-1.56-18.18c-3.94,7.44-7.85,14.22-10.44,14.9-6.59,1.72-27.76,18.18-28.18,16.28C644.05,694.27,647.69,694.94,647.69,694.94Z"/><path class="cls-14" d="M645.77,691.19l-.15-.17c-5,1.12-8.21,4.18-9.69,10.1,1.86-.5,5.56-4.07,8.14-6.29-.74,3.32.73,4.8,4,0l-.41.06S645,694.44,645.77,691.19Z"/><path class="cls-40" d="M120.35,814.94c-17.48-.51-29.44-.68-29.44-.68.8,30.17,7.18,85.46,15.13,119.21,5.83,0,3.49.2,3.49.2C111.69,896.13,119.6,840.82,120.35,814.94Z"/><path class="cls-40" d="M68.83,814.86H95.14c-.79,29.38-7.07,86.59-15,119.45-5.83,0-3.7.28-3.7.28C74.25,898.05,69.58,840.07,68.83,814.86Z"/><path class="cls-41" d="M83.7,716.71c14.7-1.15,22.27-.09,22.27-.09,24.58,3,14,26.15,14.36,98.92l-51.47.22C68.86,743.82,55.61,719,83.7,716.71Z"/><path class="cls-14" d="M87.77,718.92c-.15,3.71.56,10.45,4.13,12.59,4.24,2.55,8.65-7.9,9.19-11,.66-3.75.18-1.28-4.45,0-2.62.73-6,.84-8-1.45l-.47-.68-.33-.2Z"/><path class="cls-42" d="M86.48,703.08c-1.75-1.46-4.09,2,0,4.39q-1.08,13.35,7,15.78,8.16.87,10.52-12.28,5-7.62,0-5.84C98.13,706.28,92.67,705,86.48,703.08Z"/><path class="cls-42" d="M66.81,777.35l.24-4.81q3-3.76,6.73-1.92Q72.76,782.71,66.81,777.35Z"/><path class="cls-43" d="M69.52,780.7q5.07-14.06,5.08-14.06l34.6-.36-2.55,14.57Z"/><path class="cls-42" d="M109.15,773.72v-4.06q-10.11-5-15.72,1.52Q101.7,779.93,109.15,773.72Z"/><path class="cls-14" d="M68.2,746c2.4-8.4,1.64-18.54.6-23.38-34.69,33.44-25.18,67.14-1.13,57.5q1.45-10.2,1.46-10.2C59.21,773,53.81,762.18,68.2,746Z"/><path class="cls-44" d="M80.79,934.24c-2.48,0-4.38.08-4.38.08-1.61,1.09-3.15,1.92-4,3.52.74,1,3.52,1.34,7.73-.12C81.21,937.35,81.87,936.14,80.79,934.24Z"/><path class="cls-45" d="M88.68,704.69c-1.63,0-1.21,6.43-2.84-.93-.82-3.67-3.94-11.91-2-14.83,2.15-3.24,9.74-.46,12.82.3,7.67,2.1,9,8,8.59,15.31a7.26,7.26,0,0,1-1.13,4.17c-5.78-1.59-8.28-.45-14.2-3.5A5.21,5.21,0,0,0,88.68,704.69Z"/><path class="cls-44" d="M106,933.47a20.8,20.8,0,0,1,3.49.2c1.6,1.08,3.36,2,4.23,3.57-.74,1-3.74,1.29-8-.17C104.73,936.7,105,935.37,106,933.47Z"/><path class="cls-14" d="M121,741.59c-2.2-9.55-2.29-20.86-2.44-18.5,33,22.31,30.55,66.67-11.25,53.93.72-4.12-.36-7.32,1.82-7.36C123.54,769.39,138.34,764.58,121,741.59Z"/><path class="cls-36" d="M146.58,788.69c2.63,2.09,4,2.09,4,2.09-.6.53-12.2,10.65-11.34,7.54.78-2.83,2.71-5.15-2.25-1.56-4.7,3.4-1.17-2.25,0-3.76a10,10,0,0,1,9.08-4.33Z"/><path class="cls-46" d="M189.12,813.52c-14.08,1.2-29-1.16-29-1.16.18,42,16.25,101.11,18.72,122.39,6.44.4,4.58-.18,4.58-.18C188.39,869.69,189.12,813.52,189.12,813.52Z"/><path class="cls-47" d="M157.42,811.89c17,3.37,42.44-4.78,42.44-4.78-.58,12.13-.49,31.12-1.27,45.33-1.71,31.6-4.64,65.43-9.87,84.78-7.08-1.27-5.17-1.58-5.17-1.58C177.12,888,151.55,833.86,157.42,811.89Z"/><path class="cls-46" d="M163.87,693.05c-1.9-7.3.72-9.3,7.52-5.73a86.44,86.44,0,0,0,9.54,4.1c4.72,1.86,6.48,5.51,6,10.5-.76,8.56-8.91,7.23-14.26,3.21a29.7,29.7,0,0,1-7.8-8.61A27.71,27.71,0,0,1,163.87,693.05Z"/><path class="cls-48" d="M147.05,793.32a103.58,103.58,0,0,0,10.83-5.17V770.83H156l-10.74,16.36Z"/><path class="cls-49" d="M168,723.27q10.53-4.42,18.48-7.45c20.39,18.87,20.87,22,14.63,96.91-13.09,1.92-36.4,4.19-46.18,3.12C154.92,754.69,154.79,728.93,168,723.27Z"/><path class="cls-14" d="M170.06,738.71c-3.76,4.82-3.71.78-4-3.15-.19-3-.78-13.23.78-15.39,1.65-1.73,14.59-7.59,17.05-7.62a3.53,3.53,0,0,1,2.77,5.6c-.85,1.37-4.78,5.67-6.11,7.29C177,729.8,173.53,734.26,170.06,738.71Z"/><path class="cls-36" d="M169.79,717.94q-5.16-6.41-3.16-19,11.31,2.31,12.12,9.48,4.31-8.18,5.26-.53c.35,2.46.53,3.69.53,3.69Q177.42,719.53,169.79,717.94Z"/><path class="cls-36" d="M181.62,793.43c0-3.93,1-5.16,1-5.16-.92.16-18.67,3.42-15.18,4.9,3.16,1.34,6.69,1.27-.21,3.2-6.55,1.84,1.2,2.72,3.44,2.74,4.71,0,7.76-1.4,10.6-5.18Z"/><path class="cls-48" d="M178.16,798.37c31.47-21.27,32.78-35.85,24.76-66-9.34-13.7-20.76-1.84-11.84,35.83l-15.07,23Q178.16,798.38,178.16,798.37Z"/><path class="cls-50" d="M179.07,934.1l4,1.73c-.11,1.68-.17,2.51-.17,2.51h-1.59c0-.53,0-.79,0-.79-1.88,1.77-5.13,3.11-7.62,1.23A20.33,20.33,0,0,0,179.07,934.1Z"/><path class="cls-50" d="M184.1,936.66a10.47,10.47,0,0,1,4.71.24c-.12,1.75-.19,4.39-.19,4.39a13.2,13.2,0,0,1-2.22-.2v-.83q-2.94,2.78-7.8.82A19.51,19.51,0,0,0,184.1,936.66Z"/></g></g></svg>