<svg xmlns="http://www.w3.org/2000/svg" viewBox="0 0 187.48 187.34"><defs><style>.cls-1{fill:#d1ecff;}.cls-2{fill:#044a8b;}.cls-3{fill:#fdc509;}</style></defs><g id="圖層_2" data-name="圖層 2"><g id="圖層_1-2" data-name="圖層 1"><path id="Path_463" data-name="Path 463" class="cls-1" d="M93.91,0c87.53,0,93.57,6.34,93.57,93.87s-4.48,93.47-92,93.47S0,187.6,0,100.07,6.39,0,93.91,0Z"/><path id="Path_491" data-name="Path 491" class="cls-2" d="M110.34,87.89H78.61c-9.7,0-18.75,8.28-17.55,18.34l2.51,18.88c1.95,10,7.85,18.07,17.53,18.07h26.74c9.67,0,15.57-8.32,17.53-18.36l2.51-18.89C129.13,96.05,120,87.89,110.34,87.89Z"/><path id="Path_662" data-name="Path 662" class="cls-2" d="M112.84,62A17.83,17.83,0,1,1,95,43.65,18.08,18.08,0,0,1,112.84,62Z"/><path id="Path_493" data-name="Path 493" class="cls-3" d="M139.68,79.54H119.74A11.35,11.35,0,0,0,113,81.81a24.34,24.34,0,0,1,8.35,2.65,22.47,22.47,0,0,1,7.74,5.66A19.13,19.13,0,0,1,134,105.39h0L132.83,114h5.3c6.08,0,9.78-5.18,11-11.42l1.55-11.77C151.43,84.62,145.72,79.54,139.68,79.54Z"/><path id="Path_494" data-name="Path 494" class="cls-3" d="M129.7,76a11.17,11.17,0,1,0-11.17-11.17A11.17,11.17,0,0,0,129.7,76Z"/><path id="Path_495" data-name="Path 495" class="cls-3" d="M68.68,79.54H48.79c-6.08,0-11.76,5.15-11,11.43l1.55,11.77c1.22,6.2,4.92,11.23,11,11.23h5.75L55,105.69h0a19.77,19.77,0,0,1,5-15.6,23.32,23.32,0,0,1,7.64-5.6,23.92,23.92,0,0,1,7.89-2.58A11.64,11.64,0,0,0,68.68,79.54Z"/><path id="Path_496" data-name="Path 496" class="cls-3" d="M58.73,76A11.17,11.17,0,1,0,47.56,64.83,11.17,11.17,0,0,0,58.73,76Z"/></g></g></svg>